<svg xmlns="http://www.w3.org/2000/svg" width="2500" height="2500" viewBox="0 0 192.756 192.756"><g fill-rule="evenodd" clip-rule="evenodd"><path fill="#fff" d="M0 0h192.756v192.756H0V0z"/><path d="M64.79 99.568c-.408-.092-.997-.408-1.45-.771-4.123-3.941 1.132-8.562 7.203-11.234v-7.611c1.45.861 2.174.951 2.265 1.087l4.621-4.621-1.541-3.896c13.591-4.711 19.072-6.523 30.125-8.381l-1.992-1.812 3.262-1.902c7.43 2.492 14.361 3.126 13.184 9.333.316-4.168-4.895-5.799-12.957-8.064l-1.496.951 2.945 2.446c-13.228 2.311-21.382 4.848-31.032 8.2l1.269 3.442-4.803 4.757c.816.227 9.242 3.081 18.076-3.08.045-.045.181-.091.181-.182-.317-.453-.861-.861-1.585-1.541 2.537.182 4.213 2.446 3.896 4.802h-1.178c.136-.725-.045-1.585-.362-2.129-6.75 4.983-14.678 5.708-21.428 3.353v5.889c-3.308 1.132-9.151 4.757-9.106 8.245.226 1.676 1.087 2.266 1.903 2.719z"/><path d="M92.378 98.027c-7.294 3.76-14.271 6.705-25.143 7.113-13.999-.273-16.173-9.605-9.514-19.345 6.251-9.83 16.219-18.755 32.119-24.327 4.53-1.586 11.372-3.488 17.85-3.534 9.377-.09 18.482 2.854 17.895 11.779-.318 6.886-10.238 16.626-15.449 23.603-2.266 3.036-2.627 4.983 1.178 4.846 13.818-.904 26.457-5.707 38.055-10.69-7.793 5.3-48.654 25.549-48.881 11.733.045-1.721.906-3.579 2.219-5.527 1.314-1.948 3.127-4.032 4.984-6.161 2.764-3.171 9.648-10.782 11.959-15.357 3.896-8.607-4.848-9.061-12.367-11.733l-3.262 1.902 1.947 1.812c-11.008 1.857-16.49 3.669-30.081 8.381l1.541 3.896-4.621 4.621c-.091-.136-.815-.226-2.265-1.087v7.611c-6.07 2.672-11.326 7.293-7.203 11.234.453.363 1.042.68 1.45.771h-.046c7.476 4.213 27.68-1.541 27.635-1.541zM45.807 118.051v-3.533h5.165v3.533h-5.165zm.227 14.541V120h4.802v12.592h-4.802zm107.956-11.098c2.537 0 4.621 2.084 4.621 4.621a4.612 4.612 0 0 1-4.621 4.621 4.583 4.583 0 0 1-4.621-4.621 4.612 4.612 0 0 1 4.621-4.621zm0 11.416c3.715 0 6.75-3.035 6.75-6.795 0-3.715-3.035-6.75-6.75-6.75-3.76 0-6.795 3.035-6.795 6.75a6.786 6.786 0 0 0 6.795 6.795zm-24.689-.318h2.129v-1.947h-2.129v1.947zm16.172-1.629c-.68.588-2.084 1.947-4.711 1.947-3.443 0-6.75-2.719-6.75-6.795 0-4.031 3.307-6.75 6.75-6.75 2.492 0 4.031 1.359 4.711 1.947-.408.543-.77 1.676-.951 2.174-1.268-1.721-2.809-1.992-3.76-1.992-2.537 0-4.621 2.129-4.621 4.621 0 2.537 2.084 4.666 4.621 4.666 1.404 0 2.764-.635 3.805-1.994.316 1.133.679 1.768.906 2.176zm18.302 1.629V120h1.902v1.766a4.523 4.523 0 0 1 1.586-1.494 4.543 4.543 0 0 1 2.266-.59c.906 0 1.676.227 2.264.59.59.406 1.043.951 1.27 1.631.996-1.451 2.311-2.221 3.896-2.221 1.223 0 2.219.363 2.854 1.043.68.725 1.041 1.766 1.041 3.215v8.652h-2.129v-7.926c0-.861-.09-1.496-.227-1.857a1.746 1.746 0 0 0-.725-.906 2.466 2.466 0 0 0-1.314-.363c-.859 0-1.584.316-2.174.906s-.906 1.541-.906 2.809v7.338h-2.129v-8.199c0-.951-.182-1.676-.498-2.129-.363-.453-.951-.725-1.723-.725-.588 0-1.131.182-1.674.498-.5.318-.861.771-1.088 1.359-.227.635-.363 1.496-.363 2.674v6.521h-2.129zm16.264-15.356v-2.402h-.906v-.316h2.174v.316h-.907v2.402h-.361zm1.586 0v-2.719h.543l.68 1.947c.045.182.09.318.135.408 0-.09.047-.271.137-.453l.635-1.902h.498v2.719h-.363v-2.266l-.77 2.266h-.361l-.771-2.311v2.311h-.363zm-61.34 13.5c-.498.678-1.27 1.223-2.266 1.584a3.85 3.85 0 0 1-.68.227c-.861.229-1.812.318-2.898.318-1.586 0-2.809-.318-3.67-.996-.906-.635-1.314-1.586-1.314-2.809 0-.771.182-1.451.498-2.039.318-.59.816-1.088 1.451-1.496.498-.316 1.223-.543 2.129-.68.814-.09 2.084-.18 3.805-.18H120.193v-.182-.182c0-.68-.18-1.178-.588-1.541-.408-.361-.996-.543-1.768-.543h-.498c-.635.045-1.088.182-1.449.363-.408.227-.68.633-.77 1.133h-4.848c.135-1.359.861-2.357 2.084-3.037 1.133-.588 2.809-.906 4.982-.951.182-.045.363-.045.59-.045 2.355 0 4.123.408 5.209 1.178 1.133.816 1.721 1.994 1.721 3.67v6.387c0 .363 0 .68.047.906.045.273.09.545.182.77h-4.486a3.774 3.774 0 0 1-.227-.77 5.032 5.032 0 0 1-.09-.859v-.226h.001zm-2.945-.59c.816-.09 1.496-.316 1.994-.77.543-.453.859-1.178.859-2.129v-.271h-.406c-.951 0-1.768 0-2.447.09a6.954 6.954 0 0 0-1.721.316c-.771.271-1.133.725-1.133 1.359 0 .453.182.816.588 1.043.408.225.998.361 1.812.361l.454.001zm-14.496-4.212c0-1.133-.316-2.039-.951-2.719s-1.449-.996-2.492-.996h-.045c-1.133 0-1.994.316-2.583.996-.589.635-.906 1.631-.906 2.9 0 1.223.317 2.174.906 2.854.633.68 1.45.996 2.538.996h.045c1.088 0 1.947-.361 2.537-1.041.634-.725.951-1.723.951-2.99zm-3.489-6.026c.588-.182 1.268-.227 1.947-.227 1.994 0 3.58.59 4.711 1.768 1.18 1.133 1.768 2.719 1.768 4.756 0 2.084-.588 3.715-1.676 4.893-1.133 1.178-2.719 1.768-4.711 1.768-.727 0-1.406-.09-2.039-.273a4.148 4.148 0 0 1-1.043-.406c-.951-.453-1.721-1.088-2.401-1.947v.361c0 .363 0 .68-.045.996 0 .318-.045.68-.09.996h-4.848c.045-.543.091-1.041.136-1.494.044-.498.044-.951.044-1.357v-15.223h4.802v7.293c.725-.725 1.542-1.268 2.446-1.586.32-.136.636-.273.999-.318zm-16.083 10.828c-.543.678-1.269 1.223-2.31 1.584a2.345 2.345 0 0 1-.68.227c-.815.229-1.812.318-2.854.318-1.586 0-2.854-.318-3.715-.996-.861-.635-1.314-1.586-1.314-2.809 0-.771.181-1.451.544-2.039.317-.59.815-1.088 1.449-1.496.499-.316 1.178-.543 2.084-.68.861-.09 2.129-.18 3.806-.18h2.854c0-.047 0-.137.046-.182v-.182c0-.68-.227-1.178-.589-1.541-.408-.361-.997-.543-1.766-.543h-.544c-.589.045-1.087.182-1.404.363-.453.227-.68.633-.771 1.133h-4.893c.182-1.359.861-2.357 2.129-3.037 1.132-.588 2.763-.906 4.938-.951.227-.045.407-.045.589-.045 2.401 0 4.122.408 5.255 1.178 1.133.816 1.677 1.994 1.677 3.67v6.387c0 .363.045.68.045.906.045.273.136.545.227.77H83.59c-.135-.225-.181-.496-.226-.77-.045-.271-.091-.543-.091-.859v-.226h-.001zm-2.989-.59c.86-.09 1.54-.316 1.994-.77.588-.453.86-1.178.86-2.129v-.271h-.362c-.952 0-1.812 0-2.492.09a6.54 6.54 0 0 0-1.676.316c-.77.271-1.178.725-1.178 1.359 0 .453.227.816.589 1.043.408.225.997.361 1.812.361l.453.001zm-14.497-4.212c0-1.133-.271-2.039-.906-2.719s-1.45-.996-2.492-.996h-.091c-1.087 0-1.948.316-2.537.996-.634.635-.906 1.631-.906 2.9 0 1.223.272 2.174.906 2.854.588.68 1.45.996 2.537.996 1.132 0 1.993-.361 2.583-1.041.634-.725.906-1.723.906-2.99zm-3.489-6.026c.634-.182 1.269-.227 1.993-.227 1.994 0 3.534.59 4.712 1.768 1.132 1.133 1.722 2.719 1.722 4.756 0 2.084-.544 3.715-1.677 4.893-1.132 1.178-2.672 1.768-4.666 1.768-.725 0-1.405-.09-2.084-.273a6.087 6.087 0 0 1-1.042-.406c-.907-.453-1.722-1.088-2.356-1.947v.361c0 .363-.045.68-.045.996-.045.318-.09.68-.136.996h-4.847a9.09 9.09 0 0 0 .136-1.494c.045-.498.091-.951.091-1.357v-15.223H58.9v7.293c.725-.725 1.54-1.268 2.401-1.586.317-.136.679-.273.996-.318zm-37.375-5.39h3.444l8.833 18.074h-5.798l-1.585-3.668h-9.832l-1.676 3.668h-5.437l9.378-18.074h2.673zm0 10.918h3.217l-3.081-6.932-.137.316-3.261 6.615h3.262v.001zm13.094 7.156v-18.074h4.801v18.074h-4.801z" fill="#d9783e"/></g></svg>