<?xml version="1.0" encoding="UTF-8"?>
<svg width="270px" height="270px" viewBox="0 0 270 270" version="1.1" xmlns="http://www.w3.org/2000/svg" xmlns:xlink="http://www.w3.org/1999/xlink">
  <!-- Generator: Sketch 48.2 (47327) - http://www.bohemiancoding.com/sketch -->
  <title>emacs-1</title>
  <desc>Created with Sketch.</desc>
  <defs>
    <linearGradient x1="25.1405003%" y1="20.7374243%" x2="92.3935234%" y2="100.44123%" id="linearGradient-1">
      <stop stop-color="#8381C5" offset="0%"></stop>
      <stop stop-color="#7E55B3" stop-opacity="0.99607843" offset="56.639391%"></stop>
      <stop stop-color="#A52ECB" stop-opacity="0.99215686" offset="100%"></stop>
    </linearGradient>
    <linearGradient x1="90.7163375%" y1="78.5066141%" x2="32.7486929%" y2="10.6339078%" id="linearGradient-2">
      <stop stop-color="#411F5D" offset="0%"></stop>
      <stop stop-color="#5B2A85" offset="100%"></stop>
    </linearGradient>
  </defs>
  <g id="Page-1" stroke="none" stroke-width="1" fill="none" fill-rule="evenodd">
    <g id="emacs-1" transform="translate(7.000000, 7.000000)" fill-rule="nonzero">
      <path d="M255.582347,127.94281 C255.582347,198.484482 198.369247,255.669812 127.793322,255.669812 C57.2173984,255.669812 0.00430386981,198.484482 0.00430386981,127.94281 C0.00430386981,57.401133 57.2173984,0.215809193 127.793322,0.215809193 C198.369247,0.215809193 255.582347,57.401133 255.582347,127.94281 Z" id="path4233" stroke="#0A0B1B" stroke-width="8.42111677" fill-opacity="0.99607843" fill="#211F46" opacity="0.40500004"></path>
      <path d="M255.582353,127.942812 C255.582353,198.484485 198.369258,255.669809 127.793347,255.669809 C57.2174362,255.669809 0.00428621842,198.484485 0.00428621842,127.942812 C0.00428621842,57.4011281 57.2174362,0.215810169 127.793347,0.215810169 C198.369258,0.215810169 255.582353,57.4011281 255.582353,127.942812 Z" id="path4235" stroke="url(#linearGradient-2)" stroke-width="13.3381681" fill="url(#linearGradient-1)"></path>
      <path d="M83.8716848,217.65997 C83.8716848,217.65997 94.6919332,218.417307 108.6117,217.203515 C114.248853,216.711962 135.651604,214.631973 151.653084,211.159913 C151.653084,211.159913 171.162751,207.028827 181.600206,203.223181 C192.521319,199.241161 198.464192,195.861532 201.139145,191.072711 C201.022493,190.09152 201.962731,186.61203 196.926383,184.521996 C184.05035,179.178544 169.117218,180.145058 139.56824,179.525196 C106.799582,178.411211 95.8987512,172.984336 90.0919366,168.613532 C84.5235803,164.179531 87.3236283,151.912494 111.182719,141.107097 C123.201233,135.353074 170.315155,124.734498 170.315155,124.734498 C154.448034,116.974633 124.860848,103.333044 118.778902,100.387254 C113.444673,97.8036719 104.908307,93.9135186 103.057925,89.2069532 C100.959986,84.6885044 108.01254,80.7962359 111.952034,79.6816054 C124.639548,76.0607132 142.550448,73.8102129 158.851454,73.5575539 C167.045208,73.4305464 168.375202,72.9089519 168.375202,72.9089519 C179.681028,71.0534075 187.123721,63.4002061 184.022777,51.2797939 C181.238955,38.908019 166.556834,31.6384922 152.604505,34.1551241 C139.465621,36.5250549 107.797489,45.6263485 107.797489,45.6263485 C146.941643,45.2911458 153.493324,45.9375512 156.419399,49.9852692 C158.147426,52.3757342 155.634186,55.6534346 145.194594,57.3403824 C133.82918,59.1769437 110.203615,61.3886481 110.203615,61.3886481 C87.5391726,62.7203905 71.5743657,62.8095241 66.7861242,72.8398427 C63.6579358,79.3927702 70.122018,85.1860393 72.9552308,88.8123444 C84.927863,101.986066 102.221567,109.09101 113.353237,114.32314 C117.541605,116.291753 129.830756,120.009416 129.830756,120.009416 C93.7176531,118.044209 67.6669944,129.015788 52.3858775,141.648043 C35.102424,157.465052 42.7481063,176.318438 78.1571289,187.926986 C99.0711229,194.783447 109.443125,198.008043 140.639493,195.228583 C159.014482,194.248662 161.911119,194.83181 162.094321,196.323591 C162.35224,198.423886 141.684982,203.641096 136.042621,205.251374 C121.688367,209.347948 84.0600394,217.619851 83.8716848,217.65997 Z" id="path4237" stroke="#000000" fill="#FFFFFF"></path>
    </g>
  </g>
</svg>
