<?xml version="1.0" encoding="UTF-8"?>
<svg width="480px" height="486px" viewBox="0 0 480 486" version="1.1" xmlns="http://www.w3.org/2000/svg" xmlns:xlink="http://www.w3.org/1999/xlink">
    <!-- Generator: Sketch 48.2 (47327) - http://www.bohemiancoding.com/sketch -->
    <title>emacs</title>
    <desc>Created with Sketch.</desc>
    <defs>
        <linearGradient x1="25.1405003%" y1="20.1364773%" x2="92.3935234%" y2="101.47711%" id="linearGradient-1">
            <stop stop-color="#8381C5" offset="0%"></stop>
            <stop stop-color="#7E55B3" stop-opacity="0.99607843" offset="56.639391%"></stop>
            <stop stop-color="#A52ECB" stop-opacity="0.99215686" offset="100%"></stop>
        </linearGradient>
        <linearGradient x1="90.7163375%" y1="79.0920364%" x2="32.7486929%" y2="9.82547129%" id="linearGradient-2">
            <stop stop-color="#411F5D" offset="0%"></stop>
            <stop stop-color="#5B2A85" offset="100%"></stop>
        </linearGradient>
    </defs>
    <g id="Page-1" stroke="none" stroke-width="1" fill="none" fill-rule="evenodd">
        <g id="emacs" transform="translate(-15.000000, -14.000000)">
            <path d="M488.23811,256.894556 C488.23811,386.955763 383.8689,492.391216 255.122975,492.391216 C126.377051,492.391216 22.0078512,386.955763 22.0078512,256.894556 C22.0078512,126.833339 126.377051,21.3978982 255.122975,21.3978982 C383.8689,21.3978982 488.23811,126.833339 488.23811,256.894556 Z" id="path4233" stroke="#0A0B1B" stroke-width="8.42111677" fill-opacity="0.99607843" fill="#211F46" fill-rule="nonzero" opacity="0.40500004"></path>
            <path d="M488.23812,256.89456 C488.23812,386.95577 383.86892,492.39121 255.12302,492.39121 C126.37712,492.39121 22.007819,386.95577 22.007819,256.89456 C22.007819,126.83333 126.37712,21.3979 255.12302,21.3979 C383.86892,21.3979 488.23812,126.83333 488.23812,256.89456 Z" id="path4235" stroke="url(#linearGradient-2)" stroke-width="13.3381681" fill="url(#linearGradient-1)" fill-rule="nonzero"></path>
            <path d="M175.0003,422.31057 C175.0003,422.31057 194.7388,423.70691 220.1315,421.46898 C230.4149,420.56268 269.4582,416.7277 298.6484,410.32609 C298.6484,410.32609 334.2383,402.7094 353.2785,395.69274 C373.201,388.35089 384.0421,382.1197 388.9218,373.29031 C388.709,371.48124 390.4242,365.06593 381.2368,361.21243 C357.7481,351.36044 330.5068,353.14245 276.603,351.99958 C216.8258,349.94567 196.9403,339.93987 186.3474,331.8812 C176.1895,323.70601 181.2974,301.08866 224.8216,281.16621 C246.746,270.55723 332.6921,250.97923 332.6921,250.97923 C303.747,236.67198 249.7735,211.5203 238.6787,206.089 C228.9479,201.32552 213.3757,194.15305 210.0002,185.47532 C206.1731,177.14443 219.0385,169.96806 226.225,167.91296 C249.3698,161.23694 282.0432,157.08758 311.7798,156.62174 C326.727,156.38757 329.1532,155.42588 329.1532,155.42588 C349.7775,152.00472 363.3546,137.89413 357.6978,115.54712 C352.6195,92.73666 325.8361,79.33347 300.384,83.97351 C276.4158,88.34307 218.6462,105.12358 218.6462,105.12358 C290.0537,104.50555 302.0054,105.69736 307.3432,113.16034 C310.4955,117.56776 305.9108,123.61102 286.8667,126.72133 C266.1337,130.10749 223.0355,134.18532 223.0355,134.18532 C181.6906,136.64072 152.5673,136.80506 143.8325,155.29846 C138.126,167.38042 149.9179,178.06176 155.0863,184.74776 C176.927,209.03681 208.4745,222.13655 228.7811,231.78329 C236.4216,235.41292 258.8397,242.26736 258.8397,242.26736 C192.9615,238.64401 145.4394,258.87286 117.5633,282.16358 C86.0345,311.32619 99.981897,346.08712 164.5757,367.49038 C202.7274,380.13198 221.6482,386.07733 278.5572,380.9527 C312.0772,379.14597 317.3613,380.22115 317.6955,382.97162 C318.166,386.84404 280.4644,396.46327 270.1715,399.43222 C243.9862,406.98528 175.3439,422.2366 175.0003,422.31057 Z" id="path4237" stroke="#000000" fill="#FFFFFF"></path>
        </g>
    </g>
</svg>