<?xml version="1.0" encoding="UTF-8"?>
<svg width="255px" height="255px" viewBox="0 0 255 255" version="1.1" xmlns="http://www.w3.org/2000/svg" xmlns:xlink="http://www.w3.org/1999/xlink">
  <!-- Generator: Sketch 48.2 (47327) - http://www.bohemiancoding.com/sketch -->
  <title>Firefox-logo</title>
  <desc>Created with Sketch.</desc>
  <defs>
    <radialGradient cx="50.6989607%" cy="5.24049851%" fx="50.6989607%" fy="5.24049851%" r="89.513871%" gradientTransform="translate(0.506990,0.052405),scale(1.000000,0.967094),translate(-0.506990,-0.052405)" id="radialGradient-1">
      <stop stop-color="#67C5D5" offset="0%"></stop>
      <stop stop-color="#66C2D3" offset="16.04%"></stop>
      <stop stop-color="#62B9CE" offset="27.95%"></stop>
      <stop stop-color="#5CA8C6" offset="38.52%"></stop>
      <stop stop-color="#5392BA" offset="48.32%"></stop>
      <stop stop-color="#4874AA" offset="57.59%"></stop>
      <stop stop-color="#3A5097" offset="66.46%"></stop>
      <stop stop-color="#2A2781" offset="74.85%"></stop>
      <stop stop-color="#1B006D" offset="81.46%"></stop>
      <stop stop-color="#596AAD" offset="100%"></stop>
    </radialGradient>
    <radialGradient cx="89.1881609%" cy="-256.271513%" fx="89.1881609%" fy="-256.271513%" r="231.105423%" gradientTransform="translate(0.891882,-2.562715),scale(1.000000,0.974972),translate(-0.891882,2.562715)" id="radialGradient-2">
      <stop stop-color="#0F80BC" offset="0%"></stop>
      <stop stop-color="#0A5F9E" offset="33.76%"></stop>
      <stop stop-color="#00145A" offset="100%"></stop>
    </radialGradient>
    <radialGradient cx="-924.119257%" cy="-1093.99573%" fx="-924.119257%" fy="-1093.99573%" r="1274.16994%" gradientTransform="translate(-9.241193,-10.939957),scale(0.678433,1.000000),translate(9.241193,10.939957)" id="radialGradient-3">
      <stop stop-color="#0F80BC" offset="0%"></stop>
      <stop stop-color="#0A5F9E" offset="33.76%"></stop>
      <stop stop-color="#00145A" offset="100%"></stop>
    </radialGradient>
    <radialGradient cx="-815.25793%" cy="-856.375628%" fx="-815.25793%" fy="-856.375628%" r="1234.00725%" gradientTransform="translate(-8.152579,-8.563756),scale(0.897566,1.000000),translate(8.152579,8.563756)" id="radialGradient-4">
      <stop stop-color="#0F80BC" offset="0%"></stop>
      <stop stop-color="#0A5F9E" offset="33.76%"></stop>
      <stop stop-color="#00145A" offset="100%"></stop>
    </radialGradient>
    <radialGradient cx="1.54664303%" cy="-32.1745071%" fx="1.54664303%" fy="-32.1745071%" r="157.883444%" gradientTransform="translate(0.015466,-0.321745),scale(1.000000,0.639140),translate(-0.015466,0.321745)" id="radialGradient-5">
      <stop stop-color="#0F80BC" offset="0%"></stop>
      <stop stop-color="#0B629B" offset="26.43%"></stop>
      <stop stop-color="#031747" offset="84.39%"></stop>
      <stop stop-color="#00022F" offset="100%"></stop>
    </radialGradient>
    <radialGradient cx="51.4923509%" cy="-47.2944329%" fx="51.4923509%" fy="-47.2944329%" r="584.979669%" gradientTransform="translate(0.514924,-0.472944),scale(0.995832,1.000000),translate(-0.514924,0.472944)" id="radialGradient-6">
      <stop stop-color="#0F80BC" offset="0%"></stop>
      <stop stop-color="#0A5F9E" offset="33.76%"></stop>
      <stop stop-color="#00145A" offset="100%"></stop>
    </radialGradient>
    <radialGradient cx="1.64916622%" cy="-1574.65925%" fx="1.64916622%" fy="-1574.65925%" r="1234.2276%" gradientTransform="translate(0.016492,-15.746593),scale(0.898225,1.000000),translate(-0.016492,15.746593)" id="radialGradient-7">
      <stop stop-color="#0F80BC" offset="0%"></stop>
      <stop stop-color="#0A5F9E" offset="33.76%"></stop>
      <stop stop-color="#00145A" offset="100%"></stop>
    </radialGradient>
    <ellipse id="path-8" cx="121.300645" cy="124.533333" rx="120.185806" ry="124.2752"></ellipse>
    <linearGradient x1="29.7208334%" y1="49.0243341%" x2="72.914073%" y2="53.5425263%" id="linearGradient-10">
      <stop stop-color="#0F80BC" offset="0%"></stop>
      <stop stop-color="#0A5F9E" offset="33.76%"></stop>
      <stop stop-color="#00145A" offset="100%"></stop>
    </linearGradient>
    <ellipse id="path-11" cx="121.300645" cy="124.533333" rx="120.185806" ry="124.2752"></ellipse>
    <linearGradient x1="41.7548225%" y1="63.8451248%" x2="20.4837347%" y2="111.513133%" id="linearGradient-13">
      <stop stop-color="#0F80BC" offset="0%"></stop>
      <stop stop-color="#0A5F9E" offset="33.76%"></stop>
      <stop stop-color="#00145A" offset="100%"></stop>
    </linearGradient>
    <linearGradient x1="49.9998378%" y1="78.2294327%" x2="49.9998378%" y2="21.5189525%" id="linearGradient-14">
      <stop stop-color="#000000" stop-opacity="0" offset="1.37%"></stop>
      <stop stop-color="#C4E0E3" stop-opacity="0.2" offset="65%"></stop>
      <stop stop-color="#C4E0E3" offset="82.24%"></stop>
      <stop stop-color="#CDE5E8" offset="84.98%"></stop>
      <stop stop-color="#E8F4F7" offset="94.43%"></stop>
      <stop stop-color="#F2FAFC" offset="100%"></stop>
    </linearGradient>
    <linearGradient x1="49.3594489%" y1="42.52745%" x2="60.9684282%" y2="35.0174677%" id="linearGradient-15">
      <stop stop-color="#DF731B" offset="0%"></stop>
      <stop stop-color="#DF731B" offset="54.49%"></stop>
      <stop stop-color="#EC8811" offset="70.14%"></stop>
      <stop stop-color="#F4950B" offset="85.93%"></stop>
      <stop stop-color="#F79A09" offset="100%"></stop>
    </linearGradient>
    <linearGradient x1="9.23194288%" y1="47.4281374%" x2="57.2651192%" y2="52.1461515%" id="linearGradient-16">
      <stop stop-color="#941403" offset="1.12%"></stop>
      <stop stop-color="#E85C0A" offset="89.72%"></stop>
    </linearGradient>
    <linearGradient x1="-227.874362%" y1="-2.30736879%" x2="114.917641%" y2="65.2196947%" id="linearGradient-17">
      <stop stop-color="#941403" offset="1.12%"></stop>
      <stop stop-color="#A32104" offset="13.57%"></stop>
      <stop stop-color="#C84107" offset="49.78%"></stop>
      <stop stop-color="#DF5509" offset="78.93%"></stop>
      <stop stop-color="#E85C0A" offset="97.2%"></stop>
    </linearGradient>
    <linearGradient x1="16.4710995%" y1="71.1952198%" x2="35.8757062%" y2="58.0173224%" id="linearGradient-18">
      <stop stop-color="#F2C8A9" offset="0%"></stop>
      <stop stop-color="#FFFFCC" offset="100%"></stop>
    </linearGradient>
    <linearGradient x1="36.4541348%" y1="50.2145231%" x2="91.7661425%" y2="53.1608247%" id="linearGradient-19">
      <stop stop-color="#B30000" offset="0%"></stop>
      <stop stop-color="#DF731B" offset="100%"></stop>
    </linearGradient>
    <linearGradient x1="31.0067292%" y1="21.6943338%" x2="121.871913%" y2="130.008853%" id="linearGradient-20">
      <stop stop-color="#941403" offset="0%"></stop>
      <stop stop-color="#DF731B" offset="100%"></stop>
    </linearGradient>
    <linearGradient x1="-3.64353049%" y1="48.2876635%" x2="103.642854%" y2="51.7103881%" id="linearGradient-21">
      <stop stop-color="#B30000" offset="5.62%"></stop>
      <stop stop-color="#DE5C01" offset="100%"></stop>
    </linearGradient>
    <linearGradient x1="40.8028957%" y1="38.5885611%" x2="125.743874%" y2="200.215172%" id="linearGradient-22">
      <stop stop-color="#DE7210" offset="5.62%"></stop>
      <stop stop-color="#F6C08F" offset="100%"></stop>
    </linearGradient>
    <linearGradient x1="48.9425555%" y1="37.5682508%" x2="30.236099%" y2="171.843464%" id="linearGradient-23">
      <stop stop-color="#DE7210" offset="5.62%"></stop>
      <stop stop-color="#F6C08F" offset="100%"></stop>
    </linearGradient>
    <linearGradient x1="56.0861604%" y1="88.0495299%" x2="18.087746%" y2="23.8596652%" id="linearGradient-24">
      <stop stop-color="#941403" offset="1.12%"></stop>
      <stop stop-color="#E85C0A" offset="47.19%"></stop>
      <stop stop-color="#F9BD5F" offset="100%"></stop>
    </linearGradient>
    <linearGradient x1="33.9075154%" y1="65.7559826%" x2="103.518013%" y2="2.06056998%" id="linearGradient-25">
      <stop stop-color="#DE7210" offset="19.66%"></stop>
      <stop stop-color="#F9BD5F" offset="84.27%"></stop>
      <stop stop-color="#FFFCCF" offset="100%"></stop>
    </linearGradient>
    <linearGradient x1="24.0782693%" y1="11.2000927%" x2="65.8189832%" y2="86.9339512%" id="linearGradient-26">
      <stop stop-color="#941403" offset="1.69%"></stop>
      <stop stop-color="#E35100" offset="50%"></stop>
      <stop stop-color="#DF731B" offset="100%"></stop>
    </linearGradient>
    <linearGradient x1="48.3329776%" y1="39.3868311%" x2="71.9082177%" y2="69.4264825%" id="linearGradient-27">
      <stop stop-color="#EEA272" offset="0%"></stop>
      <stop stop-color="#EFA777" offset="18.65%"></stop>
      <stop stop-color="#F2B585" offset="40.64%"></stop>
      <stop stop-color="#F6CD9C" offset="64.3%"></stop>
      <stop stop-color="#FCEEBB" offset="88.98%"></stop>
      <stop stop-color="#FFFFCC" offset="100%"></stop>
    </linearGradient>
    <linearGradient x1="47.1423617%" y1="59.7518517%" x2="98.6841267%" y2="141.821284%" id="linearGradient-28">
      <stop stop-color="#DF731B" offset="19.66%"></stop>
      <stop stop-color="#F9BD5F" offset="84.27%"></stop>
      <stop stop-color="#FFFCCF" offset="100%"></stop>
    </linearGradient>
    <linearGradient x1="63.9814579%" y1="1.50817902%" x2="-27.9092183%" y2="176.143439%" id="linearGradient-29">
      <stop stop-color="#DE7210" offset="5.62%"></stop>
      <stop stop-color="#F6C08F" offset="100%"></stop>
    </linearGradient>
    <linearGradient x1="65.1860582%" y1="23.0618297%" x2="-15.7225907%" y2="177.118615%" id="linearGradient-30">
      <stop stop-color="#DE7210" offset="5.62%"></stop>
      <stop stop-color="#F2C06E" offset="100%"></stop>
    </linearGradient>
    <linearGradient x1="122.839973%" y1="23.0055706%" x2="17.3332477%" y2="81.7859484%" id="linearGradient-31">
      <stop stop-color="#FFFAEE" offset="0.47%"></stop>
      <stop stop-color="#F5F89B" offset="27.57%"></stop>
      <stop stop-color="#F3ED91" offset="31.02%"></stop>
      <stop stop-color="#ECC267" offset="46.68%"></stop>
      <stop stop-color="#E6A046" offset="61.82%"></stop>
      <stop stop-color="#E2872E" offset="76.11%"></stop>
      <stop stop-color="#E07820" offset="89.21%"></stop>
      <stop stop-color="#DF731B" offset="100%"></stop>
    </linearGradient>
    <linearGradient x1="56.6907058%" y1="3.38658034%" x2="1.20210197%" y2="173.506473%" id="linearGradient-32">
      <stop stop-color="#DE7210" offset="5.62%"></stop>
      <stop stop-color="#F2C06E" offset="100%"></stop>
    </linearGradient>
    <linearGradient x1="70.2448116%" y1="-0.13941777%" x2="-38.3985865%" y2="178.560934%" id="linearGradient-33">
      <stop stop-color="#DE7210" offset="5.62%"></stop>
      <stop stop-color="#F2C06E" offset="100%"></stop>
    </linearGradient>
    <linearGradient x1="51.2769711%" y1="37.9229565%" x2="64.5837281%" y2="174.925892%" id="linearGradient-34">
      <stop stop-color="#DE7210" offset="5.62%"></stop>
      <stop stop-color="#F2C072" offset="100%"></stop>
    </linearGradient>
    <linearGradient x1="51.2799413%" y1="37.9251127%" x2="64.5859688%" y2="174.924721%" id="linearGradient-35">
      <stop stop-color="#DE7210" offset="5.62%"></stop>
      <stop stop-color="#F2C072" offset="100%"></stop>
    </linearGradient>
    <linearGradient x1="47.4231734%" y1="39.2771%" x2="-1.87537288%" y2="131.523881%" id="linearGradient-36">
      <stop stop-color="#DE7210" offset="5.62%"></stop>
      <stop stop-color="#EED8A5" offset="100%"></stop>
    </linearGradient>
    <linearGradient x1="47.4231734%" y1="39.2685933%" x2="-1.87452429%" y2="131.511972%" id="linearGradient-37">
      <stop stop-color="#DE7210" offset="5.62%"></stop>
      <stop stop-color="#EED8A5" offset="100%"></stop>
    </linearGradient>
    <linearGradient x1="44.2735072%" y1="52.2027176%" x2="17.262531%" y2="119.433514%" id="linearGradient-38">
      <stop stop-color="#DE7210" offset="5.62%"></stop>
      <stop stop-color="#F2C072" offset="100%"></stop>
    </linearGradient>
    <linearGradient x1="49.5747387%" y1="32.2270196%" x2="-53.1301549%" y2="186.65855%" id="linearGradient-39">
      <stop stop-color="#DE7210" offset="5.62%"></stop>
      <stop stop-color="#F2C072" offset="100%"></stop>
    </linearGradient>
    <linearGradient x1="49.5726392%" y1="32.2319063%" x2="-53.1256647%" y2="186.657073%" id="linearGradient-40">
      <stop stop-color="#DE7210" offset="5.62%"></stop>
      <stop stop-color="#F2C072" offset="100%"></stop>
    </linearGradient>
    <linearGradient x1="52.5888854%" y1="14.1798483%" x2="74.5320046%" y2="51.2047671%" id="linearGradient-41">
      <stop stop-color="#8B8B89" offset="0%"></stop>
      <stop stop-color="#120500" offset="100%"></stop>
    </linearGradient>
    <linearGradient x1="50.0027374%" y1="37.7876517%" x2="50.0027374%" y2="5.76848316%" id="linearGradient-42">
      <stop stop-color="#DE7210" offset="5.62%"></stop>
      <stop stop-color="#F6C08F" offset="100%"></stop>
    </linearGradient>
    <linearGradient x1="-24.5491339%" y1="107.079611%" x2="104.884683%" y2="-25.5435167%" id="linearGradient-43">
      <stop stop-color="#DE7210" offset="5.62%"></stop>
      <stop stop-color="#F6C08F" offset="100%"></stop>
    </linearGradient>
    <linearGradient x1="47.4257191%" y1="39.2779506%" x2="-1.87112995%" y2="131.521329%" id="linearGradient-44">
      <stop stop-color="#DE7210" offset="5.62%"></stop>
      <stop stop-color="#EED8A5" offset="100%"></stop>
    </linearGradient>
    <linearGradient x1="-23.4384759%" y1="105.933339%" x2="106.200971%" y2="-26.8476774%" id="linearGradient-45">
      <stop stop-color="#DE7210" offset="5.62%"></stop>
      <stop stop-color="#F6C08F" offset="100%"></stop>
    </linearGradient>
    <linearGradient x1="-37.8710414%" y1="-25.0016303%" x2="106.381615%" y2="91.2547489%" id="linearGradient-46">
      <stop stop-color="#DE7210" offset="5.62%"></stop>
      <stop stop-color="#F6C08F" offset="100%"></stop>
    </linearGradient>
    <linearGradient x1="-38.7090528%" y1="-6.9740634%" x2="108.095046%" y2="82.7881844%" id="linearGradient-47">
      <stop stop-color="#DE7210" offset="5.62%"></stop>
      <stop stop-color="#F6C08F" offset="100%"></stop>
    </linearGradient>
    <linearGradient x1="-38.7651403%" y1="-15.1249316%" x2="106.677175%" y2="91.7122292%" id="linearGradient-48">
      <stop stop-color="#DE7210" offset="5.62%"></stop>
      <stop stop-color="#F6C08F" offset="100%"></stop>
    </linearGradient>
    <linearGradient x1="55.7329034%" y1="48.3852836%" x2="-87.753594%" y2="-7.62902402%" id="linearGradient-49">
      <stop stop-color="#DE7210" offset="5.62%"></stop>
      <stop stop-color="#F6C08F" offset="100%"></stop>
    </linearGradient>
    <linearGradient x1="-19.8823448%" y1="109.700532%" x2="106.515959%" y2="-27.098263%" id="linearGradient-50">
      <stop stop-color="#DE7210" offset="5.62%"></stop>
      <stop stop-color="#F6C08F" offset="100%"></stop>
    </linearGradient>
    <linearGradient x1="10.1196304%" y1="107.811802%" x2="82.6183508%" y2="35.5778849%" id="linearGradient-51">
      <stop stop-color="#DE5C01" offset="0%"></stop>
      <stop stop-color="#FEFD00" offset="73.6%"></stop>
      <stop stop-color="#FEFE26" offset="77.83%"></stop>
      <stop stop-color="#FFFE54" offset="83.69%"></stop>
      <stop stop-color="#FFFF76" offset="88.9%"></stop>
      <stop stop-color="#FFFF8B" offset="93.2%"></stop>
      <stop stop-color="#FFFF92" offset="96.07%"></stop>
    </linearGradient>
    <linearGradient x1="79.6889211%" y1="57.9791002%" x2="24.822369%" y2="19.8179367%" id="linearGradient-52">
      <stop stop-color="#F79A09" offset="0%"></stop>
      <stop stop-color="#FEFD00" offset="73.6%"></stop>
      <stop stop-color="#FEFE26" offset="77.83%"></stop>
      <stop stop-color="#FFFE54" offset="83.69%"></stop>
      <stop stop-color="#FFFF76" offset="88.9%"></stop>
      <stop stop-color="#FFFF8B" offset="93.2%"></stop>
      <stop stop-color="#FFFF92" offset="96.07%"></stop>
    </linearGradient>
    <linearGradient x1="121.715968%" y1="92.5890458%" x2="19.0136549%" y2="-3.50047939%" id="linearGradient-53">
      <stop stop-color="#DE5C01" offset="0%"></stop>
      <stop stop-color="#FEFD00" offset="73.6%"></stop>
      <stop stop-color="#FEFE26" offset="77.83%"></stop>
      <stop stop-color="#FFFE54" offset="83.69%"></stop>
      <stop stop-color="#FFFF76" offset="88.9%"></stop>
      <stop stop-color="#FFFF8B" offset="93.2%"></stop>
      <stop stop-color="#FFFF92" offset="96.07%"></stop>
    </linearGradient>
    <linearGradient x1="60.238475%" y1="53.1972226%" x2="15.9900736%" y2="27.6417469%" id="linearGradient-54">
      <stop stop-color="#F79A09" offset="0%"></stop>
      <stop stop-color="#FEFD00" offset="73.6%"></stop>
      <stop stop-color="#FEFE26" offset="77.83%"></stop>
      <stop stop-color="#FFFE54" offset="83.69%"></stop>
      <stop stop-color="#FFFF76" offset="88.9%"></stop>
      <stop stop-color="#FFFF8B" offset="93.2%"></stop>
      <stop stop-color="#FFFF92" offset="96.07%"></stop>
    </linearGradient>
    <linearGradient x1="7.6444887%" y1="69.7143371%" x2="74.0427454%" y2="26.2127769%" id="linearGradient-55">
      <stop stop-color="#F79A09" offset="0%"></stop>
      <stop stop-color="#FEFD00" offset="73.6%"></stop>
      <stop stop-color="#FEFE26" offset="77.83%"></stop>
      <stop stop-color="#FFFE54" offset="83.69%"></stop>
      <stop stop-color="#FFFF76" offset="88.9%"></stop>
      <stop stop-color="#FFFF8B" offset="93.2%"></stop>
      <stop stop-color="#FFFF92" offset="96.07%"></stop>
    </linearGradient>
    <linearGradient x1="53.9058493%" y1="77.8201082%" x2="38.3146212%" y2="19.0841859%" id="linearGradient-56">
      <stop stop-color="#F79A09" offset="0%"></stop>
      <stop stop-color="#FEFD00" offset="73.6%"></stop>
      <stop stop-color="#FEFE26" offset="77.83%"></stop>
      <stop stop-color="#FFFE54" offset="83.69%"></stop>
      <stop stop-color="#FFFF76" offset="88.9%"></stop>
      <stop stop-color="#FFFF8B" offset="93.2%"></stop>
      <stop stop-color="#FFFF92" offset="96.07%"></stop>
    </linearGradient>
    <linearGradient x1="34.1108089%" y1="71.3662092%" x2="85.7261126%" y2="27.3813368%" id="linearGradient-57">
      <stop stop-color="#F79A09" offset="0%"></stop>
      <stop stop-color="#FEFD00" offset="73.6%"></stop>
      <stop stop-color="#FEFE26" offset="77.83%"></stop>
      <stop stop-color="#FFFE54" offset="83.69%"></stop>
      <stop stop-color="#FFFF76" offset="88.9%"></stop>
      <stop stop-color="#FFFF8B" offset="93.2%"></stop>
      <stop stop-color="#FFFF92" offset="96.07%"></stop>
    </linearGradient>
    <linearGradient x1="50.2021087%" y1="79.8372519%" x2="49.2229369%" y2="25.3803237%" id="linearGradient-58">
      <stop stop-color="#DE5C01" offset="0%"></stop>
      <stop stop-color="#FEFD00" offset="73.6%"></stop>
      <stop stop-color="#FEFE26" offset="77.83%"></stop>
      <stop stop-color="#FFFE54" offset="83.69%"></stop>
      <stop stop-color="#FFFF76" offset="88.9%"></stop>
      <stop stop-color="#FFFF8B" offset="93.2%"></stop>
      <stop stop-color="#FFFF92" offset="96.07%"></stop>
    </linearGradient>
    <linearGradient x1="22.670498%" y1="89.5985448%" x2="91.5800604%" y2="27.9223536%" id="linearGradient-59">
      <stop stop-color="#B9120D" offset="0%"></stop>
      <stop stop-color="#BB180D" offset="7.8%"></stop>
      <stop stop-color="#C0290C" offset="18.22%"></stop>
      <stop stop-color="#C8450A" offset="30.13%"></stop>
      <stop stop-color="#D36C08" offset="43.14%"></stop>
      <stop stop-color="#E29E05" offset="57.06%"></stop>
      <stop stop-color="#F4DA02" offset="71.51%"></stop>
      <stop stop-color="#FEFD00" offset="79.21%"></stop>
      <stop stop-color="#FEFD07" offset="81.36%"></stop>
      <stop stop-color="#FEFD1B" offset="84.55%"></stop>
      <stop stop-color="#FEFE3C" offset="88.37%"></stop>
      <stop stop-color="#FFFE69" offset="92.68%"></stop>
      <stop stop-color="#FFFFA3" offset="97.36%"></stop>
      <stop stop-color="#FFFFC7" offset="100%"></stop>
    </linearGradient>
    <linearGradient x1="40.1590755%" y1="57.2729597%" x2="140.284862%" y2="131.152821%" id="linearGradient-60">
      <stop stop-color="#DE7210" offset="5.62%"></stop>
      <stop stop-color="#F6C08F" offset="100%"></stop>
    </linearGradient>
    <linearGradient x1="33.0674227%" y1="38.6310112%" x2="149.985971%" y2="128.616368%" id="linearGradient-61">
      <stop stop-color="#DE7210" offset="5.62%"></stop>
      <stop stop-color="#F6C08F" offset="100%"></stop>
    </linearGradient>
    <linearGradient x1="22.84865%" y1="22.785479%" x2="152.849635%" y2="191.159814%" id="linearGradient-62">
      <stop stop-color="#DE7210" offset="5.62%"></stop>
      <stop stop-color="#F6C08F" offset="100%"></stop>
    </linearGradient>
  </defs>
  <g id="Page-1" stroke="none" stroke-width="1" fill="none" fill-rule="evenodd">
    <g id="Firefox-logo">
      <g id="Globe" transform="translate(4.129032, 0.000000)">
        <ellipse id="Oval" fill="#110070" fill-rule="nonzero" cx="123.365161" cy="126.666667" rx="122.500129" ry="126.666667"></ellipse>
        <ellipse id="Oval" fill="url(#radialGradient-1)" fill-rule="nonzero" cx="123.365161" cy="126.666667" rx="120.185806" ry="124.2752"></ellipse>
        <path d="M106.126452,190.818133 C105.977806,190.144 104.357161,188.187733 103.116387,187.7504 C101.879742,187.313067 100.663742,189.636267 99.8668387,185.7792 C97.2531613,187.328 96.1259355,185.352533 96.1259355,185.352533 C96.1259355,185.352533 93.307871,185.5232 92.7628387,189.088 C91.4209032,190.728533 87.9814194,196.695467 89.8085161,190.4896 C91.648,184.245333 87.867871,189.998933 87.5169032,193.134933 C86.8603871,194.528 85.7517419,194.6688 86.4495484,188.4032 C84.027871,187.5392 82.7912258,181.732267 84.1187097,181.621333 C82.5765161,179.400533 83.7883871,176.004267 85.0725161,176.1856 C86.3566452,176.356267 88.5615484,173.284267 88.4934194,172.571733 C88.4252903,171.861333 89.4885161,172.369067 89.4224516,167.588267 C89.3543226,162.794667 91.1710968,161.608533 91.3197419,165.617067 C91.4766452,169.610667 93.7847742,164.309333 93.5473548,162.276267 C93.307871,160.251733 93.7785806,155.675733 95.1845161,158.3808 C93.5473548,151.688533 94.8397419,151.424 95.8224516,155.8784 C98.2854194,156.078933 98.3700645,157.435733 98.3700645,157.435733 C101.09729,156.7424 102.404129,158.865067 102.61471,160.055467 C105.141677,156.9728 107.693419,160.296533 107.693419,160.296533 C107.693419,160.296533 109.454452,159.6928 108.612129,162.856533 C107.765677,166.0096 112.270452,164.302933 111.194839,162.037333 C113.410065,160.878933 116.698839,164.388267 117.735226,166.781867 C118.771613,169.186133 115.959742,172.590933 118.152258,173.4144 C120.357161,174.2336 119.390968,178.197333 119.390968,178.197333 C119.390968,178.197333 123.998968,180.8384 120.801032,183.106133 L119.710968,185.8048 C119.710968,185.8048 121.796129,188.209067 122.506323,186.7776 C123.216516,185.344 123.468387,188.234667 123.468387,188.234667 C123.202065,187.722667 123.980387,191.2128 126.854194,191.946667 C129.740387,192.674133 131.567484,197.386667 128.363355,197.4464 C125.171613,197.499733 124.923871,197.410133 124.058839,199.336533 C123.197935,201.2544 119.122581,201.322667 117.012645,198.839467 C114.768516,199.624533 110.775742,198.613333 111.950452,196.757333 C110.013935,197.924267 108.184774,194.7904 109.698065,193.393067 C111.211355,192 108.847484,190.1952 108.052645,192.192 C107.266065,194.186667 103.089548,195.170133 103.380645,191.776 C103.467355,190.769067 105.692903,190.180267 105.721806,191.0208 C106.128516,191.991467 106.293677,190.944 106.126452,190.818133 Z" id="Shape" fill="url(#radialGradient-2)" fill-rule="nonzero"></path>
        <g id="Group" transform="translate(196.129032, 91.733333)" fill-rule="nonzero">
          <path d="M9.37496774,1.95413333 C10.0129032,2.60693333 11.268129,2.46186667 11.963871,2.26133333 C12.6637419,2.0544 12.5646452,1.5424 13.1674839,1.34186667 C13.76,1.13493333 16.0516129,2.26133333 15.4529032,4.72106667 C14.0634839,4.9216 13.5597419,6.66666667 13.5597419,6.66666667 C13.5597419,6.66666667 12.1703226,7.27893333 11.4683871,6.97386667 C10.7705806,6.66666667 10.7705806,6.76693333 9.77341935,6.8672 C8.77625806,6.97386667 6.38141935,5.54026667 8.97445161,5.54026667 C11.5695484,5.54026667 8.67922581,4.30933333 7.58090323,4.30933333 C6.48670968,4.30933333 7.38064516,3.18293333 8.67922581,3.49013333 C7.77909677,1.95413333 8.27664516,0.821333333 9.37496774,1.95413333 Z" id="Shape" fill="url(#radialGradient-3)"></path>
          <path d="M0.388129032,7.51786667 C-0.307612903,8.2304 0.489290323,10.3850667 1.38529032,10.2784 C2.27922581,10.1781333 3.67690323,9.77066667 3.67690323,9.77066667 C3.67690323,9.77066667 4.37264516,11.2042667 3.67690323,11.6181333 C2.98116129,12.0234667 0.953806452,11.8442667 3.57987097,12.8448 C6.272,13.8666667 6.96567742,13.5573333 7.16593548,13.0453333 C7.36619355,12.5376 8.26012903,10.7968 8.76180645,10.8992 C9.16025806,9.97973333 7.36619355,9.16053333 8.36541935,8.54186667 C9.35432258,7.92746667 8.5636129,5.6768 8.5636129,5.6768 C8.5636129,5.6768 7.16593548,5.77706667 6.56929032,6.8032 C5.97058065,7.8272 5.17780645,6.70293333 4.57909677,6.70293333 C4.47793548,7.3152 4.07741935,7.8272 4.07741935,7.8272 L3.67896774,6.90133333 C3.67690323,6.8992 0.883612903,6.80106667 0.388129032,7.51786667 Z" id="Shape" fill="url(#radialGradient-4)"></path>
        </g>
        <path d="M177.889032,100.936533 C177.802323,100.674133 178.681806,99.6138667 178.446452,100.987733 C177.905548,101.9648 180.63071,102.843733 181.394581,101.755733 C183.956645,98.1290667 178.979097,96.3754667 176.819613,98.0608 C174.639484,99.7610667 173.437935,96.1152 175.942194,95.5968 C178.438194,95.0741333 178.648774,90.4128 175.898839,90.3957333 C178.32671,89.1584 174.963613,85.4506667 172.184774,84.8170667 C171.736774,80.8277333 167.665548,78.2912 165.524645,79.7397333 C163.363097,81.1925333 163.17729,80.9365333 160.010323,78.9504 C156.855742,76.9728 155.336258,83.0634667 157.656774,85.7237333 C159.991742,88.4032 158.298839,92.7232 158.395871,91.9850667 C158.395871,91.9850667 157.516387,93.6192 157.574194,94.2314667 C154.90271,95.168 154.122323,91.2810667 152.464516,90.4213333 C151.256774,92.0490667 149.305806,92.9173333 149.305806,92.9173333 L149.452387,89.6042667 C149.452387,89.6042667 141.159226,84.9365333 138.611613,86.2442667 C135.471484,87.2469333 134.728258,94.7584 137.579355,95.8570667 C140.434581,96.9685333 133.997419,99.7354667 140.455226,106.7712 C147.088516,113.994667 149.652645,114.2016 151.006968,113.026133 C151.341419,112.7296 151.919484,112.285867 152.625548,111.793067 C152.689548,112.0704 152.796903,112.337067 152.962065,112.5888 C154.621935,115.168 149.103484,117.201067 148.333419,120.896 C147.550968,124.631467 148.271484,131.5776 151.545806,131.8144 C152.16929,128.113067 158.296774,129.4208 154.962581,132.7744 C151.568516,136.194133 153.948903,136.797867 153.948903,136.797867 C153.948903,136.797867 154.109935,143.204267 159.300129,141.156267 C159.149419,141.5232 159.027613,141.992533 158.955355,142.504533 C157.504,142.2016 153.957161,141.742933 153.090065,144.298667 C151.995871,147.524267 147.363097,143.2064 144.121806,144.654933 C140.894968,146.0928 136.185806,150.813867 137.771355,154.133333 C140.818581,152.64 143.151484,159.3728 138.894452,157.9904 C134.622968,156.603733 135.452903,159.234133 135.452903,159.234133 C135.452903,159.234133 131.005935,162.858667 135.170065,166.717867 C133.570065,166.9696 130.727226,168.810667 131.685161,172.849067 C131.685161,172.849067 129.858065,172.917333 129.612387,176.5312 C123.652129,177.7728 124.015484,179.684267 132.983742,177.589333 C129.364645,179.530667 135.514839,180.443733 138.24,180.1856 C140.96929,179.9296 148.133161,183.579733 142.750968,183.616 C137.358452,183.650133 138.964645,186.376533 145.422452,186.506667 C151.869935,186.6432 151.192774,188.187733 152.15071,188.119467 C153.108645,188.0512 157.278968,191.4496 157.051871,193.333333 C156.818581,195.2192 161.420387,197.175467 164.413935,195.0144 C164.56671,196.974933 172.436645,195.445333 173.601032,191.9104 C182.123355,193.256533 181.927226,191.613867 180.029935,190.568533 C175.762581,189.8944 167.931871,184.034133 176.42529,187.048533 C184.875355,190.058667 176.734968,184.680533 174.507355,182.613333 C169.655742,181.6384 169.408,177.4592 169.408,177.4592 C169.408,177.4592 172.087742,175.882667 169.973677,171.9424 C175.215484,170.9376 172.050581,169.032533 172.638968,167.217067 C173.227355,165.3952 175.888516,163.074133 176.801032,162.8864 C176.974452,162.641067 178.401032,162.935467 177.077677,163.490133 C175.933935,163.502933 176.74529,166.830933 178.114065,167.0016 C182.74271,167.584 181.388387,161.339733 178.669419,160.0832 C175.944258,158.816 178.39071,155.381333 180.304516,157.693867 C182.218323,160.002133 186.483613,157.410133 184.883613,154.485333 C187.427097,156.3072 188.797935,150.4128 187.716129,147.029333 C191.118452,143.9808 191.009032,137.902933 188.376774,136.544 C187.082323,135.876267 186.456774,135.4432 186.142968,134.613333 C187.705806,133.8496 189.778581,133.2864 190.592,134.039467 C191.915355,135.274667 195.598452,131.867733 195.365161,127.8848 C196.915613,128.763733 199.384774,120.642133 197.287226,117.800533 C202.08929,110.862933 200.794839,110.2336 199.188645,111.396267 C196.773161,114.856533 188.839226,118.997333 194.989419,112.864 C200.96,106.909867 193.401806,111.424 190.872774,112.3904 C187.897806,116.241067 184.741161,114.391467 184.741161,114.391467 C184.741161,114.391467 184.875355,111.236267 181.03329,111.172267 C182.808774,106.109867 179.947355,107.938133 178.946065,106.555733 C177.94271,105.175467 177.581419,101.800533 177.889032,100.936533 Z" id="Shape" fill="url(#radialGradient-5)" fill-rule="nonzero"></path>
        <path d="M115.627355,50.2208 C114.882065,52.2282667 118.059355,55.4901333 119.655226,54.4405333 C121.255226,53.3845333 123.546839,51.2789333 123.546839,51.2789333 C123.546839,51.2789333 125.976774,53.2949333 124.994065,54.7328 C124.005161,56.1664 120.068129,57.7792 125.766194,57.1264 C131.610839,56.4586667 132.676129,55.2128 132.647226,54.0608 C132.616258,52.9130667 132.938323,48.7936 133.949935,48.5077333 C133.980903,46.3957333 129.975742,46.592 131.363097,44.4778667 C132.750452,42.3744 129.49471,38.9184 129.49471,38.9184 C129.49471,38.9184 126.959484,40.4522667 126.641548,42.9461333 C126.321548,45.4357333 123.949419,44.0938667 122.826323,44.6656 C123.117419,45.9114667 122.772645,47.2512 122.772645,47.2512 L121.304774,45.9093333 C121.306839,45.9072 115.996903,48.4010667 115.627355,50.2208 Z" id="Shape" fill="url(#radialGradient-6)" fill-rule="nonzero"></path>
        <path d="M125.130323,155.6608 C124.434581,156.373333 125.233548,158.525867 126.127484,158.4256 C127.023484,158.321067 128.419097,157.9136 128.419097,157.9136 C128.419097,157.9136 129.114839,159.3472 128.419097,159.758933 C127.719226,160.164267 125.696,159.989333 128.317935,160.9856 C131.008,162.0096 131.707871,161.7024 131.908129,161.1904 C132.104258,160.6784 133.000258,158.9376 133.499871,159.037867 C133.902452,158.1184 132.104258,157.301333 133.101419,156.686933 C134.098581,156.066133 133.305806,153.815467 133.305806,153.815467 C133.305806,153.815467 131.910194,153.917867 131.311484,154.944 C130.712774,155.965867 129.915871,154.839467 129.317161,154.839467 C129.216,155.453867 128.821677,155.965867 128.821677,155.965867 L128.423226,155.0464 C128.421161,155.0464 125.627871,154.944 125.130323,155.6608 Z" id="Shape" fill="url(#radialGradient-7)" fill-rule="nonzero"></path>
        <g id="Group" transform="translate(2.064516, 2.133333)">
          <g id="Clipped">
            <mask id="mask-9" fill="white">
              <use xlink:href="#path-8"></use>
            </mask>
            <g id="XMLID_8_"></g>
            <path d="M123.996903,0.00426666667 C122.114065,0.437333333 125.262452,7.47733333 125.262452,7.47733333 C125.262452,7.47733333 125.148903,12.2048 125.925161,12.4458667 C126.69729,12.6869333 131.813161,14.0096 134.48671,17.4485333 C137.172645,20.8917333 135.777032,22.7029333 133.541161,21.7088 C131.303226,20.7168 131.895742,23.7546667 131.895742,23.7546667 C131.895742,23.7546667 138.64671,26.0224 133.547355,25.8773333 C128.437677,25.7365333 136.986839,29.5914667 136.423226,29.9946667 C135.859613,30.4021333 135.537548,32.6208 135.537548,32.6208 C135.537548,32.6208 131.03071,33.0090667 134.850065,34.6666667 C147.773935,40.2922667 133.468903,38.7733333 133.468903,38.7733333 L131.643871,41.0922667 L135.25471,45.7728 L138.031484,47.8250667 C138.031484,47.8250667 143.880258,45.8090667 145.703226,45.4933333 C147.528258,45.1818667 152.132129,41.6213333 152.132129,41.6213333 C152.132129,41.6213333 153.51329,42.6410667 152.481032,40.5610667 C151.44671,38.4789333 156.281806,39.4090667 157.487484,40.9578667 L166.022194,44.9408 C166.133677,45.248 166.323613,45.5253333 166.625032,45.7408 C168.289032,46.9461333 165.12,49.0154667 165.442065,51.2064 C165.764129,53.3738667 167.698581,56.9749333 169.820903,56.5952 C169.44929,54.528 173.642323,54.2784 172.18271,56.5824 C170.725161,58.88 172.341677,58.8352 172.341677,58.8352 C172.341677,58.8352 173.689806,62.08 176.540903,60.2773333 C176.42529,61.2672 177.009548,63.2576 179.458065,63.3898667 C179.458065,63.3898667 179.197935,64.4693333 181.208774,65.2352 C180.936258,68.9408 182.084129,69.0581333 182.366968,63.4304 C182.872774,65.8986667 184.414968,62.4256 184.722581,60.7637333 C185.032258,59.0912 188.347871,55.4197333 187.451871,58.6645333 C186.562065,61.8816 197.227355,63.0592 198.410323,59.2170667 C199.603613,55.3450667 203.854452,53.3226667 203.982452,52.736 C204.110452,52.1365333 194.520774,51.2170667 195.579871,51.6842667 C196.641032,52.1514667 198.61471,49.6618667 197.881806,47.4474667 C199.070968,47.6949333 199.595355,42.5386667 197.710452,41.2032 C200.070194,36.0725333 199.054452,35.9125333 198.086194,36.9344 C196.909419,39.5050667 192.053677,43.3834667 195.346581,38.6048 C198.668387,33.7770667 193.998452,37.9989333 192.377806,39.0485333 C190.955355,41.9093333 188.45729,41.3525333 188.45729,41.3525333 C188.45729,41.3525333 187.998968,39.4090667 185.327484,40.0576 C185.639226,36.6186667 183.979355,38.2698667 183.015226,37.5957333 C182.426839,37.184 181.863226,36.2581333 181.516387,35.4645333 C183.818323,36.4288 186.908903,37.4549333 186.376258,35.6864 C186.031484,34.5301333 190.736516,37.0581333 190.901677,36.5312 L196.781419,35.6864 L202.498065,31.9530667 C165.962323,-1.78346667 123.996903,0.00426666667 123.996903,0.00426666667 Z" id="Shape" fill="url(#linearGradient-10)" fill-rule="nonzero" mask="url(#mask-9)"></path>
          </g>
          <g id="Clipped">
            <mask id="mask-12" fill="white">
              <use xlink:href="#path-11"></use>
            </mask>
            <g id="XMLID_8_"></g>
            <path d="M69.6815484,10.8693333 C47.8534194,20.9962667 31.3827097,41.8688 31.3827097,41.8688 C31.3827097,41.8688 33.3192258,46.4448 33.9943226,46.1077333 C34.6756129,45.7749333 29.12,58.1141333 33.1974194,58.8096 C37.2954839,59.5029333 49.0859355,51.1765333 46.8996129,51.9402667 C44.7194839,52.6997333 48.128,47.4346667 48.128,47.4346667 C48.128,47.4346667 54.2637419,44.6229333 50.6343226,47.8656 C47.035871,51.0890667 55.419871,48.2645333 55.2898065,48.9237333 C55.1576774,49.5872 56.3736774,51.3706667 56.3736774,51.3706667 C56.3736774,51.3706667 53.4978065,54.5578667 57.211871,53.2736 C69.9540645,48.8469333 58.8882581,57.0688 58.8882581,57.0688 L59.1070968,59.8677333 L64.6193548,60.8576 L67.8771613,60.5376 C67.8771613,60.5376 70.7282581,55.3408 71.8286452,53.9285333 C72.9331613,52.5141333 73.9509677,46.9226667 73.9509677,46.9226667 C73.9509677,46.9226667 75.6087742,46.7434667 73.5112258,45.9242667 C71.4136774,45.1029333 75.5179355,42.5472 77.4049032,42.8650667 L86.2885161,40.0149333 C86.5734194,40.16 86.8913548,40.2346667 87.2588387,40.1898667 C89.2923871,39.9466667 88.2683871,43.6096 89.9303226,44.9898667 C91.5736774,46.3637333 95.3538065,47.6864 96.708129,45.9904 C95.0895484,44.7232 98.0996129,41.7002667 98.4836129,44.3882667 C98.8696774,47.0528 100.067097,45.9306667 100.067097,45.9306667 C100.067097,45.9306667 103.252645,40.2688 104.270452,37.0197333 C104.827871,37.824 110.026323,29.9605333 108.451097,26.2101333 C106.859355,22.4128 109.44,18.8373333 109.153032,18.2848 C108.857806,17.7386667 107.303226,19.4112 108.451097,19.0101333 C109.60929,18.6005333 105.170581,20.6570667 104.582194,14.6133333 C103.987613,8.448 103.122581,15.1317333 102.548645,17.1072 C103.326968,20.3242667 111.405419,4.1088 111.405419,4.1088 L121.818839,-0.279466667 C121.818839,-0.270933333 98.116129,-2.32106667 69.6815484,10.8693333 Z" id="Shape" fill="url(#linearGradient-13)" fill-rule="nonzero" mask="url(#mask-12)"></path>
          </g>
        </g>
        <ellipse id="Oval" fill="url(#linearGradient-14)" fill-rule="nonzero" opacity="0.5" cx="121.088" cy="49.6448" rx="63.6387097" ry="42.6048"></ellipse>
      </g>
      <g id="Fox" transform="translate(0.000000, 19.200000)" fill-rule="nonzero">
        <path d="M254.598194,72.7125333 L251.654194,92.2325333 C251.654194,92.2325333 247.444645,56.0938667 242.285419,42.5834667 C234.378323,21.8816 230.860387,22.048 230.837677,22.0778667 C236.133161,35.9850667 235.173161,43.456 235.173161,43.456 C235.173161,43.456 225.789935,17.0304 200.980645,8.62293333 C171.598452,-1.32906667 156.63071,2.26773333 156.742194,2.4064 C156.853677,2.5472 187.109161,7.872 192.474839,15.4901333 C192.474839,15.4901333 179.623226,15.4901333 166.833548,19.2981333 C166.255484,19.4688 213.890065,25.4464 223.628387,74.6325333 C223.628387,74.6325333 218.407226,63.3749333 211.949419,61.4634667 C216.196129,74.8138667 215.106065,100.1472 211.061677,112.738133 C210.541419,114.357333 210.008774,105.738667 202.041806,102.026667 C204.593548,120.9216 201.889032,150.890667 189.202581,159.146667 C188.213677,159.7888 197.155097,129.5616 191.000774,141.248 C154.258581,199.460267 110.575484,164.8 92.8578065,152.445867 C107.078194,156.046933 122.184258,153.4528 130.929548,147.2768 C139.755355,141.0432 144.976516,136.4864 149.665032,137.563733 C154.351484,138.645333 157.470968,133.7856 153.831226,129.474133 C150.187355,125.154133 141.338839,119.217067 129.368774,122.453333 C120.926968,124.738133 110.466065,134.389333 94.4970323,124.616533 C80.8732903,116.2752 80.9661935,109.501867 80.9661935,105.186133 C80.9661935,100.868267 84.6823226,94.3061333 91.4456774,95.3834667 C97.5029677,96.3498667 94.3112258,92.6741333 100.828903,95.3834667 C102.604387,96.1216 100.651355,86.5749333 98.1243871,80.4586667 C102.990452,69.9648 118.777806,66.8458667 119.956645,65.9264 C122.091355,64.2581333 120.916645,63.4261333 121.645419,60.9130667 C122.32671,58.5728 122.762323,52.2474667 105.094194,53.9946667 C96.964129,54.7989333 91.7925161,43.9125333 90.0975484,41.2693333 C90.6467097,37.9050667 91.5282581,34.8309333 92.7215484,32.0149333 C93.9334194,29.4485333 95.2567742,27.0976 96.5780645,25.3184 C96.9909677,24.7616 97.3501935,24.2730667 97.6763871,23.8186667 C100.31071,20.6442667 103.543742,17.9306667 107.425032,15.6736 C109.450323,14.4917333 84.7793548,15.5989333 73.6784516,30.5514667 C70.6993548,30.9525333 66.6116129,30.0650667 62.0428387,30.0650667 C56.315871,30.0650667 51.8172903,30.7114667 47.6531613,31.7930667 C46.9863226,31.9658667 45.9107097,31.872 44.5956129,31.5477333 C40.9310968,27.6245333 30.5630968,18.1952 30.0882581,5.40586667 C30.0882581,5.40586667 15.0131613,17.3781333 17.2696774,50.0181333 C17.0714839,68.0682667 11.9143226,62.9077333 9.26141935,72.704 C8.02683871,77.3461333 11.1174194,80.8426667 11.1174194,80.9792 C11.1132903,81.0496 14.8252903,76.8277333 14.8252903,76.8277333 C14.8252903,76.8277333 -8.55122581,118.677333 21.6381935,172.1024 C47.6593548,218.158933 91.3259355,238.513067 136.637935,234.549333 C144.563613,234.016 152.547097,232.795733 160.512,230.807467 C266.076903,204.433067 254.598194,72.7125333 254.598194,72.7125333 Z" id="Shape" fill="url(#linearGradient-15)"></path>
        <path d="M89.7424516,39.7013333 C89.7424516,39.7013333 94.3050323,52.5845333 104.538839,52.5418667 C124.062968,52.4608 124.453161,52.7402667 124.579097,55.1936 C124.967226,62.6602667 121.399742,65.1072 120.035097,66.1696 C118.666323,67.2298667 100.075355,78.368 99.392,81.5530667 C98.7086452,84.736 77.9396129,51.264 77.9396129,51.264 L89.7424516,39.7013333 Z" id="Shape" fill="url(#linearGradient-16)"></path>
        <path d="M100.13729,53.5893333 C100.13729,53.5893333 106.479484,61.9562667 101.683613,65.3034667 C95.8245161,69.3909333 109.966452,70.2848 115.090581,67.3130667 C120.21471,64.3413333 123.361032,59.9744 123.540645,59.3237333 C123.720258,58.6730667 125.402839,52.8085333 114.706581,54.8522667 C107.943226,56.1450667 105.465806,56.4437333 100.13729,53.5893333 Z" id="Shape" fill="url(#linearGradient-17)"></path>
        <path d="M120.037161,66.1696 C121.073548,65.3632 123.373419,63.744 124.252903,59.7461333 C123.610839,60.0149333 123.550968,59.2554667 122.79329,59.584 C108.434581,75.0613333 107.885419,64.2837333 100.048516,66.4533333 C92.9052903,68.4736 91.3011613,71.2448 90.9997419,71.4602667 C91.1050323,71.616 91.2144516,71.776 91.3197419,71.9317333 C93.3780645,73.0112 95.3517419,76.4586667 96.8340645,79.5349333 C98.2833548,81.3184 99.2557419,82.1973333 99.396129,81.5509333 C100.077419,78.3658667 118.668387,67.2277333 120.037161,66.1696 Z" id="Shape" fill="url(#linearGradient-18)"></path>
        <path d="M12.7587097,78.4682667 C9.82709677,84.8234667 -8.98477419,117.672533 21.7166452,172.3456 C51.7594839,225.858133 103.754323,243.3344 156.839226,231.460267 C171.992774,228.072533 189.464774,215.8208 200.59871,206.830933 C193.445161,188.1856 197.679484,188.885333 193.845677,191.338667 C151.08129,218.6944 117.086968,191.709867 90.7767742,188.260267 C-6.01393548,175.584 13.0993548,78.2698667 13.0993548,78.2698667 L12.7587097,78.4682667 Z" id="Shape" fill="url(#linearGradient-19)"></path>
        <path d="M93.3553548,153.457067 C102.478452,156.283733 122.382452,153.847467 130.931613,147.2768 C136.691613,142.852267 141.043613,139.515733 144.704,138.120533 C138.233806,133.578667 138.130581,140.017067 124.525419,143.272533 C96.1837419,150.0672 82.4237419,135.389867 82.4237419,135.389867 C84.4304516,147.003733 91.4498065,152.6592 94.6085161,154.666667 C93.7703226,153.898667 93.3305806,153.448533 93.3553548,153.457067 Z" id="Shape" fill="url(#linearGradient-20)"></path>
        <path d="M62.6209032,206.493867 C62.6209032,206.493867 39.0276129,178.9824 32.4418065,148.1728 C22.7303226,138.6944 15.8389677,130.679467 11.2619355,124.8832 C13.9045161,146.807467 24.7225806,180.8448 62.6209032,206.493867 Z" id="Shape" fill="url(#linearGradient-21)"></path>
        <path d="M42.939871,181.508267 C42.939871,181.508267 26.6570323,157.5552 32.7618065,137.216 C38.2534194,118.9312 31.5953548,129.809067 27.7223226,133.717333 C23.8100645,137.666133 21.7992258,122.0608 21.8983226,120.2624 C21.9045161,120.224 21.9003871,120.206933 21.8962581,120.2048 C21.6505806,120.151467 14.1460645,157.5936 42.939871,181.508267 Z" id="Shape" fill="url(#linearGradient-22)"></path>
        <path d="M18.8180645,160.6272 C18.8180645,160.6272 15.1060645,112.0128 26.8387097,105.141333 C45.4709677,94.2293333 28.3932903,96.7808 22.9904516,99.8101333 C17.5298065,102.8672 18.0356129,82.7434667 18.8077419,80.832 C19.5654194,78.9482667 -0.423225806,99.8570667 18.8180645,160.6272 Z" id="Shape" fill="url(#linearGradient-23)"></path>
        <path d="M100.337548,17.5765333 C100.337548,17.5765333 85.5865806,33.0581333 85.696,33.1114667 C85.8074839,33.1669333 86.1192258,52.9834667 86.6002581,58.6005333 C88.3674839,60.7573333 93.8756129,74.7882667 89.659871,71.6736 C85.3532903,68.4949333 88.4583226,68.4266667 88.8340645,70.0416 C88.8443871,70.0949333 88.8443871,70.1205333 88.8340645,70.1205333 C88.5491613,70.2570667 78.1295484,46.8181333 100.337548,17.5765333 Z" id="Shape" fill="#A40000"></path>
        <path d="M30.1687742,5.64693333 C30.1687742,5.64693333 14.4908387,18.0736 17.4864516,52.1642667 C29.6216774,40.9066667 46.7819355,32.4906667 46.7819355,32.4906667 C43.9019355,30.6176 30.6910968,19.6970667 30.1687742,5.64693333 Z" id="Shape" fill="url(#linearGradient-24)"></path>
        <path d="M68.8061935,42.9269333 L92.3540645,73.1882667 C85.5597419,43.4709333 90.7829677,25.6405333 107.507613,15.9146667 C109.982968,14.4725333 72.5656774,16.4330667 68.8061935,42.9269333 Z" id="Shape" fill="url(#linearGradient-25)"></path>
        <path d="M52.2157419,117.6832 C56.2312258,91.5370667 91.4456774,95.3813333 91.4456774,95.3813333 C89.8745806,96.5866667 83.8420645,97.3077333 82.1140645,102.295467 C76.411871,118.762667 81.8498065,154.734933 117.371871,169.821867 C121.118968,171.4176 46.2823226,156.322133 52.2157419,117.6832 Z" id="Shape" fill="url(#linearGradient-26)"></path>
        <path d="M124.050581,60.4544 C123.877161,60.4224 123.724387,60.4266667 123.648,60.5333333 C123.214452,61.1328 121.540129,63.1765333 117.557677,66.528 C110.160516,72.7466667 107.043097,71.1722667 101.532903,72.4458667 C99.0245161,73.024 96.64,74.7648 95.0338065,76.16 C95.684129,77.2458667 96.2910968,78.4149333 96.832,79.5349333 C98.2812903,81.3184 99.2536774,82.1973333 99.3940645,81.5509333 C100.077419,78.3658667 118.668387,67.2277333 120.037161,66.1674667 C121.007484,65.4144 123.067871,63.9189333 124.050581,60.4544 Z" id="Shape" fill="url(#linearGradient-27)"></path>
        <path d="M101.347097,99.9786667 C101.553548,94.4533333 101.179871,81.0325333 95.620129,75.2085333 C91.3734194,70.7605333 90.3762581,65.664 89.8064516,59.8464 C43.6376774,77.6661333 37.0456774,100.96 41.6619355,100.202667 C78.587871,94.1546667 88.9682581,93.4144 101.347097,99.9786667 Z" id="Shape" fill="url(#linearGradient-28)"></path>
        <path d="M2.91303226,132.631467 C2.91303226,132.631467 6.12129032,89.5552 26.9873548,73.7898667 C43.3692903,61.4058667 30.6477419,65.9050667 24.3220645,66.4170667 C17.6516129,66.9632 14.0944516,71.1552 15.3806452,69.6128 C15.4363871,69.5488 15.4549677,69.5125333 15.4446452,69.4954667 C15.2258065,69.2288 -0.212645161,82.6154667 2.91303226,132.631467 Z" id="Shape" fill="url(#linearGradient-29)"></path>
        <path d="M0.716387097,99.5370667 C0.716387097,99.5370667 11.8978065,62.8608 34.496,63.1701333 C49.4823226,63.3770667 37.5948387,50.0842667 33.0611613,48.064 C28.3313548,45.9712 27.2,46.0522667 26.0954839,47.0634667 C24.4397419,48.5781333 9.57109677,47.9936 0.716387097,99.5370667 Z" id="Shape" fill="url(#linearGradient-30)"></path>
        <path d="M153.156129,135.4368 C154.855226,133.7152 153.670194,127.1104 142.990452,123.106133 C133.299613,119.4688 118.172903,128.7168 113.684645,130.542933 C113.684645,130.542933 130.818065,127.2256 137.242839,128.330667 C145.950968,129.828267 149.010581,139.639467 153.156129,135.4368 Z" id="Shape" fill="url(#linearGradient-31)"></path>
        <path d="M17.2221935,123.3536 C17.2221935,123.3536 15.3661935,87.296 31.0049032,71.8954667 C43.2825806,59.7994667 33.211871,64.9514667 28.0237419,66.0842667 C22.5527742,67.2832 20.0443871,71.1552 20.9507097,69.7322667 C20.9899355,69.6725333 20.9981935,69.6405333 20.9899355,69.6277333 C20.7772903,69.4336 9.38941935,82.2549333 17.2221935,123.3536 Z" id="Shape" fill="url(#linearGradient-32)"></path>
        <path d="M5.17780645,111.899733 C5.17780645,111.899733 11.7863226,76.4416 30.5569032,65.3909333 C45.2934194,56.7104 34.3205161,59.2021333 29.0188387,59.0101333 C23.428129,58.8117333 20.091871,61.9434667 21.3016774,60.7893333 C21.3532903,60.7424 21.3698065,60.7104 21.3636129,60.6997333 C21.2067097,60.4544 7.16387097,70.0629333 5.17780645,111.899733 Z" id="Shape" fill="url(#linearGradient-33)"></path>
        <path d="M27.4642581,126.453333 C27.4642581,126.453333 23.8513548,104.962133 31.6366452,94.3829333 C37.8508387,85.9413333 32.3943226,90.0714667 29.5101935,91.2874667 C26.500129,92.5589333 25.3584516,95.0656 25.7692903,94.1461333 C26.1677419,93.248 12.3747097,104.292267 27.4642581,126.453333 Z" id="Shape" fill="url(#linearGradient-34)"></path>
        <path d="M31.5932903,106.186667 C31.5932903,106.186667 27.9803871,84.6954667 35.7656774,74.1162667 C41.979871,65.6746667 36.5233548,69.8048 33.6392258,71.0208 C30.6291613,72.2922667 29.4874839,74.7989333 29.8983226,73.8794667 C30.2967742,72.9813333 16.5037419,84.0256 31.5932903,106.186667 Z" id="Shape" fill="url(#linearGradient-35)"></path>
        <path d="M9.75483871,76.8064 C9.75483871,76.8064 18.1925161,58.9397333 29.4090323,55.4218667 C38.3607742,52.6165333 32.196129,52.6570667 29.4379355,51.9616 C26.555871,51.2405333 24.4190968,52.4608 25.1974194,52.0085333 C25.9571613,51.5669333 10.0645161,52.1130667 9.75483871,76.8064 Z" id="Shape" fill="url(#linearGradient-36)"></path>
        <path d="M8.55122581,90.9461333 C8.55122581,90.9461333 16.9889032,73.0794667 28.2054194,69.5616 C37.1571613,66.7562667 30.9925161,66.7968 28.2343226,66.1013333 C25.3522581,65.3802667 23.2154839,66.6005333 23.9938065,66.1482667 C24.7514839,65.7045333 8.85883871,66.2528 8.55122581,90.9461333 Z" id="Shape" fill="url(#linearGradient-37)"></path>
        <path d="M14.6766452,87.0464 C14.6766452,87.0464 29.5597419,55.5285333 49.348129,49.3205333 C65.1416774,44.3712 54.2658065,44.4416 49.3976774,43.2192 C44.3148387,41.9456 40.5450323,44.1024 41.915871,43.3024 C43.2578065,42.5194667 15.2216774,43.4837333 14.6766452,87.0464 Z" id="Shape" fill="url(#linearGradient-38)"></path>
        <path d="M24.8505806,70.0714667 C24.8505806,70.0714667 34.107871,50.4682667 46.4144516,46.6069333 C56.2374194,43.5285333 49.472,43.5733333 46.4454194,42.8117333 C43.2825806,42.0202667 40.9393548,43.36 41.792,42.8629333 C42.6260645,42.3765333 25.1891613,42.976 24.8505806,70.0714667 Z" id="Shape" fill="url(#linearGradient-39)"></path>
        <path d="M27.8689032,76.9962667 C27.8689032,76.9962667 36.3065806,59.1296 47.5230968,55.6117333 C56.4748387,52.8064 50.3101935,52.8469333 47.552,52.1514667 C44.6699355,51.4304 42.5331613,52.6506667 43.3114839,52.1984 C44.0691613,51.7546667 28.1765161,52.3029333 27.8689032,76.9962667 Z" id="Shape" fill="url(#linearGradient-40)"></path>
        <path d="M124.581161,55.1936 C124.484129,53.3312 124.217806,52.7232 115.588129,52.5717333 C116.577032,53.0346667 118.282323,53.9626667 120.158968,55.5541333 C122.638452,57.6533333 123.041032,59.9936 123.297032,62.4170667 C124.13729,60.7658667 124.752516,58.4896 124.581161,55.1936 Z" id="Shape" fill="url(#linearGradient-41)"></path>
        <path d="M73.9138065,30.3061333 L66.4299355,42.7498667 C66.4299355,42.7498667 36.5027097,37.9008 11.131871,63.264 C9.03432258,65.3589333 27.7264516,18.4149333 73.9138065,30.3061333 Z" id="Shape" fill="url(#linearGradient-42)"></path>
        <path d="M47.0379355,52.5781333 C47.0379355,52.5781333 55.0131613,37.2778667 65.3543226,32.6549333 C60.0092903,32.8298667 48.0061935,37.1477333 47.0379355,52.5781333 Z" id="Shape" fill="url(#linearGradient-43)"></path>
        <path d="M16.3509677,67.5114667 C16.3509677,67.5114667 24.7886452,49.6448 36.0051613,46.1269333 C44.9569032,43.3216 38.7922581,43.3621333 36.0340645,42.6666667 C33.152,41.9456 31.0152258,43.1658667 31.7935484,42.7136 C32.5532903,42.272 16.6585806,42.8181333 16.3509677,67.5114667 Z" id="Shape" fill="url(#linearGradient-44)"></path>
        <path d="M34.0273548,54.9226667 C34.0273548,54.9226667 42.7334194,40.5205333 53.0931613,36.6869333 C47.876129,36.5098667 35.9101935,39.9424 34.0273548,54.9226667 Z" id="Shape" fill="url(#linearGradient-45)"></path>
        <path d="M48.9538065,30.3232 C48.9538065,30.3232 42.3886452,33.2864 30.8129032,28.3136 L41.1334194,33.6746667 L48.9538065,30.3232 Z" id="Shape" fill="url(#linearGradient-46)"></path>
        <path d="M45.7806452,32.224 C45.7806452,32.224 37.0312258,35.7269333 20.1930323,30.5130667 L34.5971613,36.4352 C36.3788387,34.7328 45.7806452,32.224 45.7806452,32.224 Z" id="Shape" fill="url(#linearGradient-47)"></path>
        <path d="M52.1661935,29.3525333 C52.1661935,29.3525333 46.3587097,31.1786667 35.6314839,26.8906667 L45.952,32.2517333 C47.0420645,31.2554667 52.1661935,29.3525333 52.1661935,29.3525333 Z" id="Shape" fill="url(#linearGradient-48)"></path>
        <path d="M34.0562581,36.2517333 C34.0562581,36.2517333 29.7414194,39.9530667 18.6900645,40.1045333 L28.2487742,40.4266667 L34.0562581,36.2517333 Z" id="Shape" fill="url(#linearGradient-49)"></path>
        <path d="M23.5581935,55.1914667 C23.5581935,55.1914667 38.3256774,35.3130667 50.4877419,30.8117333 C44.3602581,30.6048 25.7651613,37.6085333 23.5581935,55.1914667 Z" id="Shape" fill="url(#linearGradient-50)"></path>
      </g>
      <g id="Fire" transform="translate(82.580645, 21.333333)" fill-rule="nonzero">
        <path d="M169.701161,86.9546667 C169.701161,86.9546667 171.292903,123.835733 121.713548,175.069867 C116.203355,180.7616 86.2864516,209.723733 87.3393548,218.4128 C87.7089032,221.482667 165.834323,206.0288 169.701161,86.9546667 Z" id="Shape" fill="url(#linearGradient-51)"></path>
        <path d="M73.5793548,0.204699491 C133.297548,4.94502169 144.862968,49.3162695 144.867097,46.6005332 C145.017806,3.46448676 88.2085161,0.189816565 73.5793548,0.204699491 Z" id="Shape" fill="url(#linearGradient-52)"></path>
        <path d="M91.7656774,17.0730667 C91.7656774,17.0730667 133.165419,25.8176 144.842323,71.1616 C146.39071,77.1669333 139.854452,34.3253333 141.871484,38.3914667 C143.884387,42.4789333 125.208774,18.4277333 91.7656774,17.0730667 Z" id="Shape" fill="url(#linearGradient-53)"></path>
        <path d="M108.312774,15.9637333 C108.312774,15.9637333 145.701161,24.0170667 146.072774,85.3162667 C146.334968,128.704 152.557419,101.604267 158.730323,91.8528 C164.052645,83.4304 160.414968,73.1648 160.286968,73.1904 C160.266323,73.1968 157.592774,65.2053333 159.395097,68.5909333 C159.475613,68.7402667 156.884645,66.3850667 156.903226,66.3829333 C157.318194,66.3189333 155.464258,22.3253333 108.312774,15.9637333 Z" id="Shape" fill="url(#linearGradient-54)"></path>
        <path d="M150.414452,24.2688 C150.414452,24.2688 163.844129,60.4181333 149.611355,78.3936 C144.966194,84.2602667 144.445935,114.3168 150.12129,111.556267 C155.811097,108.791467 154.574452,127.515733 153.829161,129.646933 C153.812645,129.687467 153.808516,129.706667 153.816774,129.713067 C154.188387,129.949867 181.877677,83.5050667 150.414452,24.2688 Z" id="Shape" fill="url(#linearGradient-55)"></path>
        <path d="M131.745032,62.3253333 C131.745032,62.3253333 140.199226,87.9018667 131.346581,106.186667 L138.043871,121.642667 C142.955355,109.175467 149.208774,82.8096 131.745032,62.3253333 Z" id="Shape" fill="url(#linearGradient-56)"></path>
        <path d="M146.613677,59.2832 C146.613677,59.2832 152.460387,99.8805333 131.363097,136.526933 C131.68929,145.002667 130.250323,152.674133 128.274581,158.9952 C129.19329,160.245333 130.423742,161.1008 132.046452,161.250133 C131.330065,161.9328 130.617806,162.5728 129.928258,163.178667 C128.660645,163.7568 127.362065,164.369067 126.104774,164.9984 C125.836387,165.6448 125.565935,166.272 125.301677,166.8736 C126.705548,165.856 128.270452,164.6208 129.926194,163.1808 C134.234839,161.213867 138.112,159.6864 138.103742,159.677867 C138.103742,159.677867 137.313032,159.982933 135.413677,160.6976 C134.135742,161.1776 133.018839,161.339733 132.044387,161.250133 C148.337548,145.9072 170.663226,111.5968 146.613677,59.2832 Z M122.031484,167.208533 C120.16929,168.337067 118.814968,169.3952 118.525935,170.212267 C118.31329,170.807467 119.582968,170.464 121.777548,169.1904 C121.891097,168.509867 121.984,167.842133 122.031484,167.208533 Z" id="Shape" fill="url(#linearGradient-57)"></path>
        <path d="M120.592516,102.538667 C120.592516,102.538667 137.226323,151.460267 84.0650323,197.326933 C80.9290323,200.034133 105.643355,198.875733 107.806968,197.860267 C114.178065,194.869333 121.707355,174.912 120.819613,177.301333 C119.938065,179.688533 145.505032,142.024533 120.592516,102.538667 Z" id="Shape" fill="url(#linearGradient-58)"></path>
        <path d="M143.855484,133.568 C143.855484,133.568 133.821935,197.021867 64.452129,202.126933 C37.2892903,204.128 -1.71148387,197.559467 1.74245161,208.264533 C2.81393548,211.584 7.91948387,225.422933 19.5716129,228.6336 C51.1070968,237.326933 135.009032,234.481067 143.855484,133.568 Z" id="Shape" fill="url(#linearGradient-59)"></path>
      </g>
      <g id="Layer_6" transform="translate(28.903226, 162.133333)" fill-rule="nonzero">
        <path d="M139.678968,40.7872 C139.678968,40.7872 97.2345806,50.8074667 69.7372903,26.6197333 C44.5770323,4.48213333 57.0590968,23.1146667 60.4717419,32.3050667 C63.9772903,41.7301333 44.2590968,34.528 41.2944516,33.0133333 C38.340129,31.5178667 88,63.6992 139.678968,40.7872 Z" id="Shape" fill="url(#linearGradient-60)"></path>
        <path d="M112.326194,64.6933333 C112.326194,64.6933333 61.6939355,54.4106667 45.6629677,18.9589333 C31.9649032,-11.328 35.5901935,10.8970667 34.9729032,21.0112 C34.3246452,31.4154667 20.1269677,17.2074667 18.2296774,14.7349333 C18.176,14.6752 18.1388387,14.6346667 18.1347097,14.6453333 C17.851871,14.8373333 44.2487742,57.5978667 112.326194,64.6933333 Z" id="Shape" fill="url(#linearGradient-61)"></path>
        <path d="M57.0157419,60.1088 C57.0157419,60.1088 32.832,40.7530667 21.9292903,14.2122667 C12.7669677,10.9226667 0.584258065,3.40266667 0.342709677,2.11626667 C4.21367742,22.7392 24.5925161,46.8181333 57.0157419,60.1088 Z" id="Shape" fill="url(#linearGradient-62)"></path>
      </g>
    </g>
  </g>
</svg>
