<?xml version="1.0" encoding="UTF-8"?>
<svg width="256px" height="256px" viewBox="0 0 256 256" version="1.1" xmlns="http://www.w3.org/2000/svg" xmlns:xlink="http://www.w3.org/1999/xlink">
    <!-- Generator: Sketch 48.2 (47327) - http://www.bohemiancoding.com/sketch -->
    <title>github-1</title>
    <desc>Created with Sketch.</desc>
    <defs></defs>
    <g id="Page-1" stroke="none" stroke-width="1" fill="none" fill-rule="evenodd">
        <g id="github-1" fill="#000000" fill-rule="nonzero">
            <path d="M0,127.991808 C0,92.660736 12.4992,62.496 37.497856,37.4976 C62.496,12.4992 92.660736,0 127.992064,0 C163.32288,0 193.487616,12.4992 218.486272,37.4976 C243.484416,62.496 255.983872,92.660736 255.983872,127.991808 C255.983872,163.32288 243.484672,193.487616 218.486272,218.486016 C193.487872,243.484416 163.323136,255.983872 127.992064,255.983872 C92.660736,255.983872 62.496,243.484672 37.497856,218.486016 C12.4992,193.487872 0,163.322624 0,127.991808 Z M13.999104,127.991808 C13.999104,159.323392 25.165056,186.154752 47.49696,208.486912 C69.828864,230.81856 96.66048,241.984768 127.992064,241.984768 C159.323392,241.984768 186.155008,230.818816 208.486912,208.486912 C230.818816,186.155008 241.984768,159.323392 241.984768,127.991808 C241.984768,96.66048 230.819072,69.828864 208.486912,47.49696 C186.155008,25.165056 159.323136,13.999104 127.992064,13.999104 C96.66048,13.999104 69.82912,25.165056 47.49696,47.49696 C25.165056,69.828864 13.999104,96.66048 13.999104,127.991808 Z M49.997056,155.490048 C49.330432,154.823424 49.330432,154.1568 49.997056,153.490176 C51.330048,152.156928 52.996864,151.65696 54.99648,151.990272 C56.996352,152.323584 58.162944,152.656896 58.496256,152.990208 C60.82944,153.990144 63.412736,156.239872 66.245632,159.739904 C69.078528,163.23968 71.328512,165.656064 72.995328,166.989312 C80.994816,173.655552 89.160704,174.15552 97.493504,168.489216 C98.160128,166.156032 99.24352,164.15616 100.743168,162.489344 C102.242816,160.822784 103.659776,159.656448 104.993024,158.989568 C106.326528,158.322944 108.659712,157.323008 111.992832,155.98976 C100.99328,154.989824 92.077312,153.073152 85.244416,150.24 C78.41152,147.406848 72.995072,143.823872 68.995328,139.490816 C63.662336,133.4912 60.412416,125.658368 59.245824,115.99232 C58.078976,106.326272 58.829056,97.493504 61.495808,89.494016 C63.49568,84.494336 66.328832,79.99488 69.995008,75.99488 C67.328512,67.66208 67.82848,58.162688 71.494912,47.496704 C82.160896,48.163328 91.826944,51.82976 100.493056,58.496 C117.158656,54.162944 134.49088,53.996288 152.489472,57.996032 C154.822656,56.329472 158.405888,54.2464 163.238656,51.746304 C168.07168,49.246464 174.154752,47.82976 181.487616,47.496448 C182.820864,51.16288 183.7376,55.495936 184.237568,60.495616 C184.737536,65.495296 184.48768,70.161664 183.487744,74.49472 C191.153664,82.494208 195.153408,93.160192 195.48672,106.492672 C195.48672,117.158656 193.65376,125.991424 189.987328,132.990976 C186.320896,139.990528 179.821312,145.823488 170.488576,150.4896 C164.155648,153.489664 155.822848,155.322624 145.490176,155.989248 C150.1568,158.322432 153.57312,160.739072 155.739648,163.238912 C157.906432,165.738752 159.32288,169.65504 159.98976,174.988032 L159.98976,190.737408 L160.489472,205.986304 C161.489408,207.65312 162.656256,209.069568 163.989504,210.236416 C165.322752,211.403008 166.489344,212.236288 167.48928,212.736256 C168.48896,213.236224 168.822528,213.986304 168.48896,214.98624 C168.155648,215.986176 166.8224,216.486144 164.489472,216.486144 C158.822912,216.486144 154.323456,214.486272 150.990336,210.486272 C149.9904,208.819712 149.490432,206.820096 149.490432,204.486656 L149.490432,180.488192 C149.490432,177.821696 148.823808,175.905024 147.49056,174.738432 C146.157312,173.571584 144.824064,172.82176 143.490816,172.488448 L143.490816,203.986432 C143.490816,209.652736 144.15744,213.319168 145.490688,214.985728 C146.823936,216.652288 147.657216,218.319104 147.990784,219.985408 C148.324096,220.31872 148.073984,220.568576 147.240704,220.735232 C146.40768,220.901632 144.990976,220.652032 142.990848,219.985408 C138.657792,218.985472 135.657984,216.735488 133.991424,213.235712 C132.324864,209.735936 131.491584,205.986048 131.491584,201.986304 L131.491584,170.989056 L124.992,170.989056 L124.992,201.987072 C124.992,205.986816 124.158464,209.82016 122.491904,213.486336 C120.158976,218.15296 115.825664,220.652544 109.492992,220.985856 C108.493056,220.652544 107.993088,220.319232 107.993088,219.986176 C108.3264,219.652608 109.326336,217.986304 110.992896,214.986496 C111.326208,214.319872 111.742976,212.986624 112.242944,210.986752 C112.743168,208.98688 112.993024,206.653696 112.993024,203.9872 L112.993024,172.48896 C111.659776,172.822272 110.409728,173.572096 109.243136,174.738944 C108.076544,175.905792 107.49312,177.822208 107.49312,180.488704 L107.49312,204.487168 C107.49312,206.820096 106.993152,208.820224 105.993216,210.486784 C102.993408,214.486528 98.493696,216.486656 92.494336,216.486656 C90.161152,216.486656 88.827904,215.986688 88.494592,214.986752 C88.161024,214.320128 88.24448,213.736704 88.744704,213.236736 C89.244928,212.736768 89.994752,212.153344 90.994688,211.48672 C91.994624,210.820096 92.661248,210.319872 92.99456,209.986816 C94.327808,208.98688 95.327488,207.653632 95.994368,205.987072 C96.994304,204.653824 97.24416,201.154048 96.744192,195.487744 C96.244224,189.82144 96.160768,186.155008 96.49408,184.488448 C87.827712,187.488256 78.9952,185.988096 69.99552,179.988736 C67.329024,177.32224 64.662528,173.488896 61.996032,168.489472 C59.99616,164.822784 55.996416,160.489728 49.997056,155.490048 Z" id="Shape"></path>
        </g>
    </g>
</svg>